<?xml version="1.0" standalone="no"?>
<!DOCTYPE svg PUBLIC "-//W3C//DTD SVG 20010904//EN"
 "http://www.w3.org/TR/2001/REC-SVG-20010904/DTD/svg10.dtd">
<svg version="1.0" xmlns="http://www.w3.org/2000/svg"
 width="413.000000pt" height="413.000000pt" viewBox="0 0 413.000000 413.000000"
 preserveAspectRatio="xMidYMid meet">
<metadata>
Created by potrace 1.11, written by Peter Selinger 2001-2013
</metadata>
<g transform="translate(0.000000,413.000000) scale(0.100000,-0.100000)"
fill="#000000" stroke="none">
<path d="M1379 4061 c-67 -21 -112 -61 -139 -126 -16 -37 -17 -137 -16 -1325
l1 -1285 27 -46 c30 -51 90 -95 140 -104 26 -5 562 -9 765 -6 l41 1 -1 218 -2
217 -232 1 c-254 1 -272 5 -295 62 -7 19 -10 309 -10 927 0 495 1 917 1 938 1
29 9 46 30 68 l29 29 952 0 c633 0 958 -3 971 -10 47 -26 46 -4 45 -1012 l-1
-948 -25 -22 c-14 -13 -32 -25 -40 -26 -8 -2 -104 -4 -212 -4 -109 0 -198 -3
-199 -7 -1 -3 -2 -102 -3 -219 l-1 -212 35 -1 c19 0 183 0 363 0 373 -1 400 4
463 73 66 73 63 14 63 1368 0 820 -4 1244 -11 1282 -12 63 -54 123 -111 155
-30 17 -97 18 -1317 20 -707 1 -1297 -2 -1311 -6z"/>
<path d="M142 2961 c-21 -8 -38 -18 -40 -23 -2 -4 -8 -8 -14 -8 -12 0 -27 -15
-58 -60 l-25 -35 0 -1310 0 -1310 29 -43 c26 -38 78 -80 116 -91 8 -3 587 -6
1285 -8 1153 -3 1274 -2 1314 13 76 29 131 92 147 169 6 29 5 2493 -1 2539
-10 75 -63 136 -141 165 -44 16 -88 17 -414 17 l-365 -1 -3 -220 -2 -220 207
0 c115 1 218 -3 230 -8 58 -25 55 26 54 -1005 0 -1027 2 -980 -54 -1001 -12
-5 -446 -8 -965 -8 -908 0 -943 0 -967 18 -13 11 -28 34 -34 52 -8 28 -9 1835
-1 1890 2 10 15 28 30 40 25 22 33 22 257 22 l232 -1 3 76 c2 41 1 140 -2 220
l-5 145 -388 0 c-315 0 -396 -3 -425 -14z"/>
</g>
</svg>
